@startuml
title Config (auto-gen from clang-uml)
class "config::NetSioConfig" as C_0009654526727956470660
class C_0009654526727956470660 {
__
+enabled : bool
+host : std::string
+port : std::uint16_t
}
enum "config::BootMode" as C_0012427176626669726738
enum C_0012427176626669726738 {
Normal
Config
Unknown
}
class "config::GeneralConfig" as C_0016837659718836839167
class C_0016837659718836839167 {
__
+deviceName : std::string
}
class "config::BootConfig" as C_0007703634119308578859
class C_0007703634119308578859 {
__
+configUri : std::string
+mode : BootMode
+readOnly : bool
}
class "config::WifiConfig" as C_0016905784937528219397
class C_0016905784937528219397 {
__
+bssid : std::string
+enabled : bool
+passphrase : std::string
+ssid : std::string
}
class "config::ModemConfig" as C_0005975997772767504221
class C_0005975997772767504221 {
__
+enabled : bool
+snifferEnabled : bool
}
class "config::CpmConfig" as C_0006472023737076814481
class C_0006472023737076814481 {
__
+ccpImage : std::string
+enabled : bool
}
class "config::PrinterConfig" as C_0011654528465957303447
class C_0011654528465957303447 {
__
+enabled : bool
}
class "config::ClockConfig" as C_0014123104778393566609
class C_0014123104778393566609 {
__
+enabled : bool
+timezone : std::string
}
enum "config::UartParity" as C_0011809635346976144757
enum C_0011809635346976144757 {
None
Even
Odd
}
enum "config::UartStopBits" as C_0000352932751041244767
enum C_0000352932751041244767 {
One
OnePointFive
Two
}
enum "config::UartFlowControl" as C_0005231581209463879465
enum C_0005231581209463879465 {
None
RtsCts
}
class "config::UartConfig" as C_0010483269678483040323
class C_0010483269678483040323 {
__
+baudRate : std::uint32_t
+dataBits : int
+flowControl : UartFlowControl
+parity : UartParity
+stopBits : UartStopBits
+txByteGapUs : std::uint32_t
+txChunkGapUs : std::uint32_t
+txChunkSize : std::uint32_t
+txGapUs : std::uint32_t
}
class "config::ChannelConfig" as C_0014601375190208620155
class C_0014601375190208620155 {
__
+ptyPath : std::string
+serialPort : std::string
+tcpHost : std::string
+tcpPort : std::uint16_t
+uart : UartConfig
}
class "config::FujiConfig" as C_0013064010099190715901
class C_0013064010099190715901 {
__
+boot : BootConfig
+channel : ChannelConfig
+clock : ClockConfig
+cpm : CpmConfig
+general : GeneralConfig
+modem : ModemConfig
+netsio : NetSioConfig
+printer : PrinterConfig
+wifi : WifiConfig
}
abstract "config::FujiConfigStore" as C_0010708806357379257038
abstract C_0010708806357379257038 {
+~FujiConfigStore() constexpr = default : void
..
{abstract} +load() = 0 : FujiConfig
{abstract} +save(const FujiConfig & cfg) = 0 : void
__
}
class "config::YamlFujiConfigStoreFs" as C_0004992050062997423308
class C_0004992050062997423308 {
+YamlFujiConfigStoreFs(fs::IFileSystem * primary, fs::IFileSystem * backup, std::string relativePath) : void
..
+load() : FujiConfig
-loadFromFs(fs::IFileSystem & fs) : FujiConfig
+save(const FujiConfig & cfg) : void
-saveToFs(fs::IFileSystem & fs, const FujiConfig & cfg) : void
__
-_backup : fs::IFileSystem *
-_primary : fs::IFileSystem *
-_relPath : std::string
}
C_0007703634119308578859 o-- C_0012427176626669726738 : +mode
C_0010483269678483040323 o-- C_0011809635346976144757 : +parity
C_0010483269678483040323 o-- C_0000352932751041244767 : +stopBits
C_0010483269678483040323 o-- C_0005231581209463879465 : +flowControl
C_0014601375190208620155 o-- C_0010483269678483040323 : +uart
C_0013064010099190715901 o-- C_0016837659718836839167 : +general
C_0013064010099190715901 o-- C_0007703634119308578859 : +boot
C_0013064010099190715901 o-- C_0016905784937528219397 : +wifi
C_0013064010099190715901 o-- C_0005975997772767504221 : +modem
C_0013064010099190715901 o-- C_0006472023737076814481 : +cpm
C_0013064010099190715901 o-- C_0011654528465957303447 : +printer
C_0013064010099190715901 o-- C_0009654526727956470660 : +netsio
C_0013064010099190715901 o-- C_0014123104778393566609 : +clock
C_0013064010099190715901 o-- C_0014601375190208620155 : +channel
C_0010708806357379257038 ..> C_0013064010099190715901
C_0004992050062997423308 ..> C_0013064010099190715901
C_0010708806357379257038 <|-- C_0004992050062997423308

'Generated with clang-uml, version 0.6.3
'LLVM version Ubuntu clang version 18.1.3 (1ubuntu1)
@enduml
